<svg width="48" height="48" viewBox="0 0 48 48" fill="none" xmlns="http://www.w3.org/2000/svg"><g clip-path="url(#clip0_264_899)"><path fill="#fff" d="M0 0h48v48H0z"/><g clip-path="url(#clip1_264_899)"><g clip-path="url(#clip2_264_899)"><path d="M48 0H0v48h48V0z" fill="#fff"/><path d="M38.8199 14.1975v19.605H6.27738v-19.605H38.8199zm.2175-1.5H6.03738c-.34014 0-.66635.1351-.90686.3756-.24052.2406-.37564.5668-.37564.9069v20.04c0 .3401.13512.6664.37564.9069.24051.2405.56672.3756.90686.3756H39.0374c.3401 0 .6663-.1351.9068-.3756.2406-.2405.3757-.5668.3757-.9069V13.98c0-.3401-.1351-.6663-.3757-.9069-.2405-.2405-.5667-.3756-.9068-.3756z" fill="#000"/><path d="M41.7225 21.075v5.85H40.5v-5.85h1.2525m.615-1.5H39.855c-.2294.0078-.4469.1045-.6065.2696-.1595.1651-.2486.3858-.2485.6154v7.0725c-.001.1169.0212.2328.0652.341.0441.1082.1091.2067.1914.2897.0823.0829.1802.1488.288.1937.1079.045.2236.0681.3404.0681h2.4825c.1169 0 .2326-.0231.3404-.0681.1079-.0449.2058-.1108.2881-.1937.0823-.083.1473-.1815.1913-.2897.0441-.1082.0662-.2241.0652-.341V20.46c0-.2347-.0932-.4598-.2592-.6258-.1659-.1659-.3911-.2592-.6258-.2592zm-13.05-1.5225c0-.5302-.4281-.96-.9562-.96s-.9563.4298-.9563.96V29.955c0 .5302.4282.96.9563.96s.9562-.4298.9562-.96V18.0525zm-5.8125.0225c0-.5302-.4281-.96-.9562-.96s-.9563.4298-.9563.96v11.9025c0 .5302.4282.96.9563.96s.9562-.4298.9562-.96V18.075zm-5.82 0c0-.5302-.4282-.96-.9563-.96s-.9562.4298-.9562.96v11.9025c0 .5302.4281.96.9562.96s.9563-.4298.9563-.96V18.075zm-5.8125-.0225c0-.5302-.4282-.96-.9563-.96s-.95624.4298-.95624.96V29.955c0 .5302.42814.96.95624.96s.9563-.4298.9563-.96V18.0525zm23.2651 0c0-.5302-.4281-.96-.9563-.96-.5281 0-.9562.4298-.9562.96V29.955c0 .5302.4281.96.9562.96.5282 0 .9563-.4298.9563-.96V18.0525z" fill="#000"/></g></g></g><defs><clipPath id="clip0_264_899"><path fill="#fff" d="M0 0h48v48H0z"/></clipPath><clipPath id="clip1_264_899"><path fill="#fff" d="M0 0h48v48H0z"/></clipPath><clipPath id="clip2_264_899"><path fill="#fff" d="M0 0h48v48H0z"/></clipPath></defs></svg>